<svg width="50" height="50" viewBox="0 0 50 50" fill="none" xmlns="http://www.w3.org/2000/svg">
<g clip-path="url(#clip0_11_243)">
<path d="M50 25.1521C50 37.6292 40.8458 47.9729 28.8958 49.85V32.4271H34.7062L35.8125 25.2188H28.8958V20.5417C28.8958 18.5688 29.8625 16.6479 32.9583 16.6479H36.1021V10.5104C36.1021 10.5104 33.2479 10.0229 30.5208 10.0229C24.825 10.0229 21.1042 13.475 21.1042 19.7229V25.2167H14.7729V32.425H21.1042V49.8479C9.15625 47.9688 0 37.6271 0 25.1521C0 11.3459 11.1937 0.1521 25 0.1521C38.8062 0.1521 50 11.3438 50 25.1521Z" fill="black"/>
</g>
<defs>
<clipPath id="clip0_11_243">
<rect width="50" height="50" fill="white"/>
</clipPath>
</defs>
</svg>
