<svg width="15" height="15" viewBox="0 0 15 15" fill="none" xmlns="http://www.w3.org/2000/svg">
<path d="M6.5 1.5C3.7445 1.5 1.5 3.7445 1.5 6.5C1.5 9.2555 3.7445 11.5 6.5 11.5C7.69825 11.5 8.79869 11.0745 9.66113 10.3682L12.6465 13.3535C12.6926 13.4015 12.7477 13.4398 12.8088 13.4662C12.8699 13.4926 12.9356 13.5065 13.0021 13.5072C13.0686 13.5079 13.1346 13.4953 13.1962 13.4701C13.2578 13.445 13.3137 13.4078 13.3608 13.3608C13.4078 13.3137 13.445 13.2578 13.4701 13.1962C13.4953 13.1346 13.5079 13.0686 13.5072 13.0021C13.5065 12.9356 13.4926 12.8699 13.4662 12.8088C13.4398 12.7477 13.4015 12.6926 13.3535 12.6465L10.3682 9.66113C11.0745 8.79869 11.5 7.69825 11.5 6.5C11.5 3.7445 9.2555 1.5 6.5 1.5ZM6.5 2.5C8.71506 2.5 10.5 4.28494 10.5 6.5C10.5 8.71506 8.71506 10.5 6.5 10.5C4.28494 10.5 2.5 8.71506 2.5 6.5C2.5 4.28494 4.28494 2.5 6.5 2.5Z" fill="#B4ADAD"/>
</svg>
