<svg width="39" height="33" viewBox="0 0 39 33" fill="none" xmlns="http://www.w3.org/2000/svg">
<path d="M2.10539 2.42512C1.45609 2.42512 0.899536 1.87256 0.899536 1.19721C0.899536 0.552558 1.45609 0 2.10539 0H5.25918C5.2901 0 5.35194 0 5.38286 0C6.49596 0.0306977 7.48538 0.245581 8.3202 0.767442C9.24779 1.3507 9.92801 2.24093 10.299 3.56093C10.299 3.59163 10.299 3.62233 10.33 3.65302L10.6392 4.88093H37.6937C38.3739 4.88093 38.8995 5.43349 38.8995 6.07814C38.8995 6.20093 38.8686 6.32372 38.8377 6.44651L35.6839 19.0633C35.5602 19.6158 35.0655 19.9842 34.509 19.9842H14.7205C15.1534 21.5805 15.5863 22.44 16.1737 22.8391C16.8849 23.2995 18.1217 23.3302 20.1933 23.2995H20.2242H34.1998C34.88 23.2995 35.4056 23.8521 35.4056 24.4967C35.4056 25.1721 34.8491 25.694 34.1998 25.694H20.2242C17.6579 25.7246 16.081 25.6633 14.8133 24.8344C13.5147 23.9749 12.8344 22.5014 12.1542 19.8307L8.01101 4.26698C8.01101 4.23628 8.01101 4.23628 7.98009 4.20558C7.79457 3.53023 7.48538 3.06977 7.05251 2.82419C6.61963 2.54791 6.03216 2.42512 5.35194 2.42512C5.32102 2.42512 5.2901 2.42512 5.25918 2.42512H2.10539ZM30.5822 27.106C32.2209 27.106 33.5505 28.426 33.5505 30.053C33.5505 31.68 32.2209 33 30.5822 33C28.9435 33 27.6139 31.68 27.6139 30.053C27.6139 28.426 28.9435 27.106 30.5822 27.106ZM17.5651 27.106C19.2038 27.106 20.5334 28.426 20.5334 30.053C20.5334 31.68 19.2038 33 17.5651 33C15.9264 33 14.5969 31.68 14.5969 30.053C14.5969 28.426 15.9264 27.106 17.5651 27.106ZM11.3194 7.27535L14.0712 17.5591H33.5814L36.1477 7.27535H11.3194Z" fill="black"/>
</svg>
