<svg width="50" height="50" viewBox="0 0 50 50" fill="none" xmlns="http://www.w3.org/2000/svg">
<g clip-path="url(#clip0_11_249)">
<path d="M48.9542 12.8875C48.3792 10.7229 46.6854 9.01662 44.5333 8.43745C40.6354 7.38745 25 7.38745 25 7.38745C25 7.38745 9.36458 7.38745 5.46458 8.43745C3.31458 9.01662 1.62083 10.7208 1.04583 12.8875C0 16.8125 0 25 0 25C0 25 0 33.1875 1.04583 37.1124C1.62083 39.277 3.31458 40.9833 5.46667 41.5625C9.36458 42.6125 25 42.6125 25 42.6125C25 42.6125 40.6354 42.6125 44.5354 41.5625C46.6854 40.9833 48.3792 39.2791 48.9562 37.1124C50 33.1875 50 25 50 25C50 25 50 16.8125 48.9542 12.8875ZM19.8875 32.4354V17.5645L32.9542 25L19.8875 32.4354Z" fill="black"/>
</g>
<defs>
<clipPath id="clip0_11_249">
<rect width="50" height="50" fill="white"/>
</clipPath>
</defs>
</svg>
